<?xml version="1.0" encoding="utf-8"?>
<!-- Generator: Adobe Illustrator 19.1.0, SVG Export Plug-In . SVG Version: 6.00 Build 0)  -->
<svg version="1.1" id="Vrstva_1" xmlns="http://www.w3.org/2000/svg" xmlns:xlink="http://www.w3.org/1999/xlink" x="0px" y="0px"
	 viewBox="106 -228 512 512" style="enable-background:new 106 -228 512 512;" xml:space="preserve">
<style type="text/css">
	.st0{fill:#004086;}
</style>
<path class="st0" d="M581.4,181.4h-87.7v65.5l-109.6-98.5l109.6-98.5v65.8h87.7V181.4L581.4,181.4z M384,71.8H230.4
	c-12.2,0-21.9,9.9-21.9,21.9c0,12.2,9.9,21.9,21.9,21.9h122.7l-34.8,32.6l12,11.3h-100c-12.2,0-21.9,9.9-21.9,21.9
	c0,12.2,9.9,21.9,21.9,21.9H377l70.1,65.8H164.5c-12.2,0-21.9-10.1-21.9-22v-368.6c0-11.9,9.7-21.5,21.9-21.5h53.8v41.2
	c0,19.5,15.7,34.8,35.6,34.8H361c19.8,0,36.1-15.4,36.1-34.8v-41.2h53.2c12.2,0,21.5,9.6,21.5,21.5V4.5l-76,71.2
	C392.3,73.4,388.4,71.8,384,71.8L384,71.8z M405.9,6c0-12.2-9.9-21.9-21.9-21.9H230.4c-12.2,0-21.9,9.9-21.9,21.9
	c0,12.2,9.9,21.9,21.9,21.9H384C396,27.8,405.9,18,405.9,6L405.9,6z M361.2-87.7h-107c-8.1,0-14.7-6.4-14.7-14.3v-60.2
	c0-7.9,6.5-14.3,14.7-14.3h15.5c0.1-20.2,16.9-36.6,37.6-36.6s37.5,16.4,37.6,36.6H361c8.1,0,14.7,6.4,14.7,14.3v60.2
	C375.8-94.2,369.3-87.7,361.2-87.7L361.2-87.7z M307.5-192.9c-9.2,0-16.6,7.3-16.8,16.3h33.7C324.1-185.6,316.7-192.9,307.5-192.9
	L307.5-192.9z"/>
</svg>
