<?xml version="1.0" encoding="utf-8"?>
<!-- Generator: Adobe Illustrator 19.2.0, SVG Export Plug-In . SVG Version: 6.00 Build 0)  -->
<svg version="1.1" id="Vrstva_1" xmlns="http://www.w3.org/2000/svg" xmlns:xlink="http://www.w3.org/1999/xlink" x="0px" y="0px"
	 viewBox="0 0 394 88" style="enable-background:new 0 0 394 88;" xml:space="preserve">
<style type="text/css">
	.st0{fill:#FFFFFF;}
</style>
<path class="st0" d="M12.7,0h7.1v19.1c5.5-5.2,11.6-7.7,18.6-7.7c6.9,0,13.3,2.7,18.2,7.7c4.9,5,7.6,11.6,7.6,18.6
	c0,7-2.7,13.7-7.6,18.6c-4.9,5-11.4,7.8-18.2,7.8c-14.8,0-25.9-11.2-25.9-29.1c0-1.1,0-2.2,0.1-3.4V0z M38.5,57
	c10.4,0,18.9-8.5,18.9-19.2c0-10.7-8.4-19.3-18.9-19.3c-10.4,0-18.9,8.6-18.9,19.3C19.6,48.6,28,57,38.5,57 M69.2,62.8h7.2V0h-7.2
	V62.8z M123.9,12.7h-7.1v29.8c0,8.8-6.1,14.5-13.6,14.5c-7.5,0-13.5-5.6-13.5-14.5V12.7h-7.1v29.4c0,13.3,9.2,22.1,20.8,22.1
	c11.6,0,20.7-8.6,20.7-22.1V12.7z M154.6,64.2c-6.9,0-13.4-2.7-18.3-7.7c-4.9-5-7.6-11.7-7.6-18.7c0-7,2.7-13.6,7.6-18.6
	c4.9-5,11.4-7.7,18.3-7.7c6.8,0,13.3,2.7,18.2,7.7c4.9,4.9,7.6,11.6,7.6,18.6v2.6h-44.3c1.5,10.1,9.2,16.7,18.5,16.7
	c5,0,9.4-1.9,13.6-5.9l5.1,4.8C168.1,61.4,161.7,64.2,154.6,64.2 M173,33.5c-2.6-9.4-9.8-15-18.4-15c-8.6,0-16,5.8-18.4,15H173z
	 M186,0h7.1v19.1c5.5-5.2,11.6-7.7,18.6-7.7c6.9,0,13.3,2.7,18.2,7.7c4.9,5,7.6,11.6,7.6,18.6c0,7-2.7,13.7-7.6,18.6
	c-4.9,5-11.4,7.8-18.2,7.8c-14.8,0-25.9-11.2-25.9-29.1c0-1.1,0-2.2,0.1-3.4V0z M211.8,57c10.4,0,18.9-8.5,18.9-19.2
	c0-10.7-8.4-19.3-18.9-19.3c-10.4,0-18.9,8.6-18.9,19.3C193,48.6,201.4,57,211.8,57 M268.5,64.2c-6.9,0-13.4-2.7-18.3-7.7
	c-4.9-5-7.6-11.7-7.6-18.7c0-7,2.7-13.6,7.6-18.6c4.9-5,11.4-7.7,18.3-7.7c6.8,0,13.3,2.7,18.2,7.7c4.9,4.9,7.6,11.6,7.6,18.6v2.6
	H250c1.5,10.1,9.2,16.7,18.5,16.7c5,0,9.4-1.9,13.6-5.9l5.1,4.8C282.1,61.4,275.7,64.2,268.5,64.2 M287,33.5
	c-2.6-9.4-9.8-15-18.4-15c-8.6,0-16,5.8-18.4,15H287z M299.9,62.8h7.9V37.1c0-11,4-16.1,14.6-17.3v-7.1c-15.9,1.3-22.5,8.9-22.5,25
	V62.8z M323.2,62.8h7.9V37.1c0-11,4-16.1,14.6-17.3v-7.1c-15.9,1.3-22.5,8.9-22.5,25V62.8z M386.7,12.7v26.4c0,5.4-0.2,9.4-2.6,12.4
	c-3,3.8-6.9,5.8-11.2,5.8c-8.9,0-14.6-6.3-14.6-18.2V12.7h-6.7v26.4c0,7.9,0.4,13.7,6.7,19.6c3.6,3.3,9.4,5.5,14.3,5.5
	c4.8,0,9.4-2.1,14.1-6.2v1.6c0,12.2-4.9,19.5-14.1,21.7V88C386.7,85.8,394,75.1,394,56V12.7H386.7z M12.6,62.8
	C5.7,62.8,0,68.4,0,75.4C0,82.4,5.7,88,12.6,88c7,0,12.6-5.6,12.6-12.6C25.2,68.4,19.6,62.8,12.6,62.8 M12.6,82.2
	c-3.8,0-6.8-3-6.8-6.8c0-3.8,3.1-6.8,6.8-6.8c3.8,0,6.8,3.1,6.8,6.8C19.4,79.2,16.4,82.2,12.6,82.2"/>
</svg>
