<?xml version="1.0" encoding="utf-8"?>
<!-- Generator: Adobe Illustrator 19.2.0, SVG Export Plug-In . SVG Version: 6.00 Build 0)  -->
<svg version="1.1" id="logo_-_white" xmlns="http://www.w3.org/2000/svg" xmlns:xlink="http://www.w3.org/1999/xlink" x="0px"
	 y="0px" viewBox="0 0 216 63.6" style="enable-background:new 0 0 216 63.6;" xml:space="preserve" width="216" height="64">
<style type="text/css">
	.st0{fill:#303030;}
	.st1{fill:#004580;}
	.st2{fill:#2FFDFE;}
	.st3{fill:#004086;}
	.st4{fill:url(#SVGID_1_);}
	.st5{fill:url(#SVGID_2_);}
	.st6{fill:url(#SVGID_3_);}
	.st7{fill:url(#SVGID_4_);}
	.st8{fill:url(#SVGID_5_);}
</style>
<g id="logo">
	<g id="font">
		<g>
			<path class="st0" d="M196.2,14.5c-0.8-0.7-1.8-1-3-1c-1.2,0-2.2,0.3-3,1c-0.8,0.7-1.2,1.6-1.2,2.7c0,1.1,0.4,2,1.2,2.7
				c0.8,0.7,1.8,1,3,1c1.2,0,2.2-0.3,3-1c0.8-0.7,1.1-1.6,1.1-2.7C197.3,16.1,196.9,15.2,196.2,14.5z"/>
			<rect x="189.6" y="23.5" class="st0" width="7.2" height="24.2"/>
		</g>
		<path class="st0" d="M214.9,42.2c-0.3,0.1-0.7,0.2-1.1,0.3c-0.4,0.1-0.8,0.1-1.2,0.1c-0.9,0-1.7-0.3-2.3-0.9
			c-0.6-0.6-0.9-1.6-0.9-2.9v-9.7h5.8v-5.6h-5.8v-6.4h-5.9l-0.8,6.4l-3.7,0.3v5.3h3.3v9.8c0,1.4,0.2,2.7,0.5,3.8
			c0.3,1.2,0.8,2.1,1.5,2.9c0.7,0.8,1.5,1.4,2.6,1.9c1.1,0.5,2.3,0.7,3.8,0.7c1.2,0,2.2-0.1,3.1-0.3c0.9-0.2,1.6-0.4,2.3-0.6
			L214.9,42.2z"/>
		<path class="st0" d="M94.2,30.9v-0.2c0.9-0.2,1.7-0.6,2.4-1.1c0.7-0.5,1.2-1,1.7-1.7c0.4-0.6,0.7-1.3,1-2c0.2-0.7,0.3-1.4,0.3-2.1
			c0-1.5-0.3-2.8-0.9-3.8c-0.6-1-1.4-1.8-2.5-2.4c-1.1-0.6-2.3-1-3.7-1.3c-1.4-0.2-2.9-0.4-4.6-0.4H76.9v31.8h11.8
			c1.7,0,3.3-0.2,4.8-0.6c1.5-0.4,2.8-0.9,3.9-1.7c1.1-0.8,2-1.7,2.6-2.9c0.6-1.2,1-2.6,1-4.2c0-2.1-0.6-3.8-1.7-5
			C98.2,32.1,96.5,31.3,94.2,30.9z M84.1,21.4h3.4c1.7,0,2.9,0.3,3.8,0.8c0.8,0.5,1.2,1.4,1.2,2.6c0,1.2-0.4,2.2-1.2,2.9
			c-0.8,0.7-2.1,1-3.8,1h-3.4V21.4z M88.2,42.1h-4v-8.3h4c2,0,3.5,0.3,4.4,1c1,0.6,1.5,1.6,1.5,3C94.1,40.7,92.1,42.1,88.2,42.1z"/>
		<path class="st0" d="M156.4,26.2c-0.9-1-1.9-1.9-3.2-2.4c-1.3-0.6-2.8-0.9-4.5-0.9c-1.5,0-2.9,0.3-4.2,0.9
			c-1.4,0.6-2.6,1.4-3.6,2.5c-1.1,1.1-1.9,2.4-2.6,4c-0.6,1.6-1,3.3-1,5.3c0,2,0.3,3.8,0.9,5.4c0.6,1.6,1.5,2.9,2.6,4
			c1.1,1.1,2.4,1.9,3.9,2.5c1.5,0.6,3.1,0.9,4.8,0.9c1.5,0,2.9-0.2,4.5-0.7c1.5-0.5,2.9-1.2,4.1-2l-2.4-4.3
			c-1.8,1.1-3.5,1.6-5.2,1.6c-1.6,0-3-0.4-4.1-1.2c-1.1-0.8-1.8-2.2-2.2-4h14.5c0.1-0.3,0.1-0.7,0.2-1.2c0.1-0.5,0.1-1.1,0.1-1.8
			c0-1.7-0.2-3.2-0.6-4.6C157.9,28.5,157.3,27.3,156.4,26.2z M144.1,33.1c0.3-1.6,0.8-2.8,1.7-3.6c0.9-0.8,1.9-1.1,3-1.1
			c1.5,0,2.5,0.4,3.1,1.3c0.6,0.9,0.9,2,0.9,3.4H144.1z"/>
		<polygon class="st0" points="176.3,28.6 185.9,15.9 178,15.9 168.5,28.9 168.3,28.9 168.3,15.9 161.2,15.9 161.2,47.7 168.3,47.7
			168.3,39.1 172,34.3 179.8,47.7 187.6,47.7 		"/>
		<path class="st0" d="M128.2,39.5c-0.7,0.9-1.4,1.6-2,2c-0.6,0.4-1.4,0.6-2.3,0.6c-1,0-1.8-0.3-2.3-1c-0.5-0.6-0.7-1.9-0.7-3.6
			V23.5h-7.2v15c0,3.1,0.6,5.4,1.8,7.2c1.2,1.7,3.1,2.6,5.7,2.6c1.7,0,3.1-0.3,4.3-1c1.2-0.7,2.3-1.7,3.3-2.9h0.1l0.5,3.4h5.8V23.5
			h-7.2V39.5z"/>
		<path class="st0" d="M111.8,42.4c-0.1,0-0.3,0-0.4,0c-0.3,0-0.6-0.1-0.9-0.4c-0.3-0.3-0.4-0.8-0.4-1.6V13.5h-7.2v26.7
			c0,1.2,0.1,2.3,0.3,3.3c0.2,1,0.6,1.8,1.1,2.5c0.5,0.7,1.2,1.2,2,1.6c0.8,0.4,1.9,0.6,3.1,0.6c0.8,0,1.5-0.1,2.1-0.2
			c0.6-0.1,1.1-0.3,1.5-0.4l-0.9-5.3C112,42.4,111.9,42.4,111.8,42.4z"/>
	</g>
	<g id="pictogram">
		<polygon class="st1" points="0,15.9 14.4,23.8 43.2,23.8 57.5,15.9 		"/>
		<polygon class="st2" points="43.2,39.7 14.4,39.7 0,47.7 57.5,47.7 		"/>
		<rect y="15.9" class="st3" width="14.4" height="31.8"/>
		<rect x="43.2" y="15.9" class="st3" width="14.4" height="31.8"/>

			<linearGradient id="SVGID_1_" gradientUnits="userSpaceOnUse" x1="2.8289" y1="88.2014" x2="2.8289" y2="69.7664" gradientTransform="matrix(0.8618 0 0 0.8618 26.3367 -28.351)">
			<stop  offset="0" style="stop-color:#2EF7FA"/>
			<stop  offset="1" style="stop-color:#F0F0FA"/>
		</linearGradient>
		<polygon class="st4" points="14.4,39.7 28.8,47.7 43.2,39.7 28.8,31.8 		"/>

			<linearGradient id="SVGID_2_" gradientUnits="userSpaceOnUse" x1="2.8288" y1="106.6364" x2="2.8288" y2="78.9839" gradientTransform="matrix(0.8618 0 0 0.8618 26.3367 -28.351)">
			<stop  offset="0.1" style="stop-color:#2FFDFE"/>
			<stop  offset="1" style="stop-color:#0C6FC4"/>
		</linearGradient>
		<polygon class="st5" points="28.8,47.7 14.4,39.7 0,47.7 28.8,63.6 57.5,47.7 43.2,39.7 		"/>

			<linearGradient id="SVGID_3_" gradientUnits="userSpaceOnUse" x1="-8.1555" y1="35.6442" x2="13.8131" y2="67.0186" gradientTransform="matrix(0.8618 0 0 0.8618 26.3367 -28.351)">
			<stop  offset="0" style="stop-color:#0670BD"/>
			<stop  offset="1" style="stop-color:#41C4E8"/>
		</linearGradient>
		<polygon class="st6" points="28.8,15.9 43.2,23.8 57.5,15.9 28.8,0 0,15.9 14.4,23.8 		"/>

			<linearGradient id="SVGID_4_" gradientUnits="userSpaceOnUse" x1="-30.5591" y1="46.7226" x2="2.8288" y2="46.7226" gradientTransform="matrix(0.8618 0 0 0.8618 26.3367 -28.351)">
			<stop  offset="0.5" style="stop-color:#000000;stop-opacity:0"/>
			<stop  offset="1" style="stop-color:#000000;stop-opacity:0.35"/>
		</linearGradient>
		<polygon class="st7" points="28.8,0 0,15.9 14.4,23.8 28.8,15.9 		"/>

			<linearGradient id="SVGID_5_" gradientUnits="userSpaceOnUse" x1="-2.6633" y1="52.7053" x2="8.321" y2="68.3925" gradientTransform="matrix(0.8618 0 0 0.8618 26.3367 -28.351)">
			<stop  offset="0" style="stop-color:#001952"/>
			<stop  offset="1" style="stop-color:#0074B0"/>
		</linearGradient>
		<polygon class="st8" points="14.4,23.8 28.8,31.8 43.2,23.8 28.8,15.9 		"/>
	</g>
</g>
</svg>
