<?xml version="1.0" encoding="utf-8"?>
<!-- Generator: Adobe Illustrator 19.2.0, SVG Export Plug-In . SVG Version: 6.00 Build 0)  -->
<svg version="1.1" id="logo_-_white" xmlns="http://www.w3.org/2000/svg" xmlns:xlink="http://www.w3.org/1999/xlink" x="0px"
	 y="0px" viewBox="0 0 528.6 155.5" style="enable-background:new 0 0 528.6 155.5;" xml:space="preserve">
<style type="text/css">
	.st0{fill:#303030;}
	.st1{fill:#004580;}
	.st2{fill:#2FFDFE;}
	.st3{fill:#004086;}
	.st4{fill:url(#SVGID_1_);}
	.st5{fill:url(#SVGID_2_);}
	.st6{fill:url(#SVGID_3_);}
	.st7{fill:url(#SVGID_4_);}
	.st8{fill:url(#SVGID_5_);}
</style>
<g id="logo">
	<g id="font">
		<g>
			<path class="st0" d="M480,35.5c-1.9-1.7-4.3-2.5-7.3-2.5c-2.9,0-5.4,0.8-7.3,2.5c-1.9,1.7-2.9,3.9-2.9,6.6c0,2.7,1,4.9,2.9,6.6
				c1.9,1.7,4.3,2.6,7.3,2.6c3,0,5.5-0.9,7.3-2.6c1.9-1.7,2.8-3.9,2.8-6.6C482.8,39.4,481.9,37.2,480,35.5z"/>
			<rect x="464" y="57.5" class="st0" width="17.5" height="59.1"/>
		</g>
		<path class="st0" d="M525.9,103.1c-0.8,0.3-1.7,0.6-2.7,0.8c-1,0.2-2,0.4-2.9,0.4c-2.3,0-4.2-0.7-5.5-2.2
			c-1.4-1.5-2.1-3.9-2.1-7.2V71.2h14.2V57.5h-14.2V41.7h-14.5l-2,15.7l-9.1,0.7v13h8.1v24c0,3.4,0.4,6.5,1.1,9.4
			c0.8,2.8,1.9,5.2,3.6,7.2c1.6,2,3.7,3.5,6.3,4.6c2.6,1.1,5.7,1.7,9.4,1.7c2.9,0,5.4-0.2,7.5-0.7c2.1-0.5,4-1,5.6-1.4L525.9,103.1z
			"/>
		<path class="st0" d="M230.5,75.5V75c2.2-0.6,4.2-1.4,5.8-2.6c1.7-1.2,3-2.5,4.1-4.1c1-1.5,1.8-3.1,2.3-4.9
			c0.5-1.7,0.8-3.5,0.8-5.2c0-3.7-0.7-6.8-2.2-9.3c-1.5-2.5-3.5-4.5-6.1-6c-2.6-1.5-5.6-2.6-9.1-3.2c-3.5-0.6-7.2-0.9-11.3-0.9
			h-26.6v77.7h28.9c4.2,0,8.1-0.5,11.8-1.4c3.7-0.9,6.9-2.3,9.6-4.2c2.7-1.9,4.9-4.2,6.4-7.1c1.6-2.9,2.3-6.3,2.3-10.3
			c0-5.2-1.4-9.3-4.2-12.3C240.2,78.5,236,76.5,230.5,75.5z M205.8,52.5h8.3c4.1,0,7.2,0.6,9.2,1.9c2,1.3,3,3.4,3,6.3
			c0,2.9-1,5.3-2.9,7c-1.9,1.7-5.1,2.6-9.4,2.6h-8.2V52.5z M215.7,103h-9.9V82.6h9.9c4.8,0,8.5,0.8,10.8,2.3c2.4,1.6,3.6,4,3.6,7.5
			C230.1,99.5,225.3,103,215.7,103z"/>
		<path class="st0" d="M382.6,64.2c-2.1-2.5-4.7-4.5-7.9-6c-3.1-1.4-6.8-2.1-11-2.1c-3.6,0-7,0.7-10.4,2.1c-3.3,1.4-6.3,3.5-8.9,6.1
			c-2.6,2.7-4.7,5.9-6.3,9.8c-1.6,3.9-2.4,8.2-2.4,12.9c0,4.9,0.8,9.3,2.3,13.1c1.5,3.8,3.6,7.1,6.3,9.7c2.7,2.7,5.9,4.7,9.5,6.1
			c3.7,1.4,7.6,2.1,11.8,2.1c3.6,0,7.2-0.6,10.9-1.8c3.7-1.2,7.1-2.8,10.1-4.9l-5.8-10.6c-4.3,2.6-8.5,3.9-12.8,3.9
			c-4,0-7.3-1-10.1-3c-2.7-2-4.5-5.3-5.3-9.8h35.4c0.2-0.7,0.3-1.7,0.5-3c0.2-1.3,0.2-2.8,0.2-4.4c0-4.1-0.5-7.8-1.5-11.3
			C386.3,69.7,384.8,66.7,382.6,64.2z M352.7,81c0.6-4,2-6.9,4.1-8.8c2.1-1.9,4.5-2.8,7.3-2.8c3.6,0,6.1,1.1,7.6,3.2
			c1.5,2.1,2.3,4.9,2.3,8.3H352.7z"/>
		<polygon class="st0" points="431.3,69.9 454.8,38.9 435.5,38.9 412.3,70.7 411.9,70.7 411.9,38.9 394.3,38.9 394.3,116.6 
			411.9,116.6 411.9,95.8 420.9,83.8 439.9,116.6 459.1,116.6 		"/>
		<path class="st0" d="M313.6,96.6c-1.7,2.3-3.4,4-4.9,5c-1.5,1-3.4,1.6-5.6,1.6c-2.5,0-4.4-0.8-5.6-2.4c-1.2-1.6-1.8-4.5-1.8-8.8
			V57.5h-17.5v36.7c0,7.5,1.4,13.3,4.3,17.5c2.9,4.2,7.6,6.3,14,6.3c4.1,0,7.5-0.9,10.4-2.6c2.9-1.7,5.6-4.1,8.2-7.1h0.4l1.3,8.2
			h14.3V57.5h-17.5V96.6z"/>
		<path class="st0" d="M273.4,103.9c-0.3,0-0.6,0-1,0c-0.7,0-1.4-0.4-2.1-1.1c-0.7-0.7-1-2-1-3.8V33h-17.5v65.2c0,3,0.3,5.7,0.8,8.2
			c0.6,2.4,1.4,4.5,2.7,6.2c1.2,1.7,2.9,3,4.9,4c2.1,1,4.6,1.4,7.6,1.4c2,0,3.7-0.1,5.2-0.4c1.5-0.3,2.7-0.6,3.6-1l-2.1-13
			C274.1,103.8,273.7,103.9,273.4,103.9z"/>
	</g>
	<g id="pictogram">
		<polygon class="st1" points="0,38.9 35.2,58.3 105.6,58.3 140.8,38.9 		"/>
		<polygon class="st2" points="105.6,97.2 35.2,97.2 0,116.6 140.8,116.6 		"/>
		<rect y="38.9" class="st3" width="35.2" height="77.7"/>
		<rect x="105.6" y="38.9" class="st3" width="35.2" height="77.7"/>
		
			<linearGradient id="SVGID_1_" gradientUnits="userSpaceOnUse" x1="51.1305" y1="153.4701" x2="51.1305" y2="108.3656" gradientTransform="matrix(0.8618 0 0 0.8618 26.3367 -15.6477)">
			<stop  offset="0" style="stop-color:#2EF7FA"/>
			<stop  offset="1" style="stop-color:#F0F0FA"/>
		</linearGradient>
		<polygon class="st4" points="35.2,97.2 70.4,116.6 105.6,97.2 70.4,77.7 		"/>
		
			<linearGradient id="SVGID_2_" gradientUnits="userSpaceOnUse" x1="51.1304" y1="198.5747" x2="51.1304" y2="130.9178" gradientTransform="matrix(0.8618 0 0 0.8618 26.3367 -15.6477)">
			<stop  offset="0.1" style="stop-color:#2FFDFE"/>
			<stop  offset="1" style="stop-color:#0C6FC4"/>
		</linearGradient>
		<polygon class="st5" points="70.4,116.6 35.2,97.2 0,116.6 70.4,155.5 140.8,116.6 105.6,97.2 		"/>
		
			<linearGradient id="SVGID_3_" gradientUnits="userSpaceOnUse" x1="24.2554" y1="24.8795" x2="78.0054" y2="101.6425" gradientTransform="matrix(0.8618 0 0 0.8618 26.3367 -15.6477)">
			<stop  offset="0" style="stop-color:#0670BD"/>
			<stop  offset="1" style="stop-color:#41C4E8"/>
		</linearGradient>
		<polygon class="st6" points="70.4,38.9 105.6,58.3 140.8,38.9 70.4,0 0,38.9 35.2,58.3 		"/>
		
			<linearGradient id="SVGID_4_" gradientUnits="userSpaceOnUse" x1="-30.5591" y1="51.9848" x2="51.1304" y2="51.9848" gradientTransform="matrix(0.8618 0 0 0.8618 26.3367 -15.6477)">
			<stop  offset="0.5" style="stop-color:#000000;stop-opacity:0"/>
			<stop  offset="1" style="stop-color:#000000;stop-opacity:0.35"/>
		</linearGradient>
		<polygon class="st7" points="70.4,0 0,38.9 35.2,58.3 70.4,38.9 		"/>
		
			<linearGradient id="SVGID_5_" gradientUnits="userSpaceOnUse" x1="37.693" y1="66.6225" x2="64.568" y2="105.004" gradientTransform="matrix(0.8618 0 0 0.8618 26.3367 -15.6477)">
			<stop  offset="0" style="stop-color:#001952"/>
			<stop  offset="1" style="stop-color:#0074B0"/>
		</linearGradient>
		<polygon class="st8" points="35.2,58.3 70.4,77.7 105.6,58.3 70.4,38.9 		"/>
	</g>
</g>
</svg>
