<?xml version="1.0" encoding="utf-8"?>
<!-- Generator: Adobe Illustrator 19.2.0, SVG Export Plug-In . SVG Version: 6.00 Build 0)  -->
<svg version="1.1" id="Vrstva_1" xmlns="http://www.w3.org/2000/svg" xmlns:xlink="http://www.w3.org/1999/xlink" x="0px" y="0px"
	 viewBox="0 0 180.5 114.7" style="enable-background:new 0 0 180.5 114.7;" xml:space="preserve">
<style type="text/css">
	.st0{fill:#FFFFFF;}
</style>
<path class="st0" d="M66.8,58L66.8,58c-0.1-0.5,0.3-1.1,0.8-1.1c0.5-0.1,1.1,0.3,1.1,0.8l0,0c0,0.1,7.5,52,62.5,52
	c11.1,0,24.1-2.1,39.5-7.2c0.5-0.2,1.1,0.1,1.3,0.6c0.2,0.5-0.1,1.1-0.6,1.3c-15.5,5.1-28.8,7.3-40.1,7.3
	C74.6,111.6,66.9,58.1,66.8,58L66.8,58L66.8,58z M157.3,96.7L157.3,96.7L157.3,96.7c0,0,5.5,0.6,11,1.6c2.7,0.5,5.5,1.1,7.5,1.8
	c1,0.3,1.8,0.7,2.3,1c0.5,0.3,0.4,0.3,0.5,0.3h0.2l-0.2-0.1l0,0.1h0.2l-0.2-0.1c-1,2.8-11.7,11.6-11.7,11.6c-0.4,0.3-0.5,1-0.1,1.4
	c0.3,0.4,1,0.5,1.4,0.1c0.1-0.1,10.5-8.4,12.3-12.4c0.1-0.2,0.1-0.4,0.1-0.7c-0.8-3.3-6.3-3.7-11.8-5.1c-5.6-1-11.1-1.6-11.1-1.6
	l0,0l0,0c-0.5-0.1-1,0.3-1.1,0.9C156.4,96.1,156.8,96.6,157.3,96.7L157.3,96.7L157.3,96.7z M14.7,19.6c1.5-0.6,3.2-1.1,5-1.5
	l-0.3-1.5c-1.3,0.2-2.5,0.5-3.7,0.9c-1.2,0.3-2.4,0.7-3.5,1.1c-1.2,0.4-2.3,0.8-3.4,1.2c-1.1,0.4-2.2,0.8-3.2,1.3
	c-0.5,0.2-0.9,0.4-1.2,0.5c-0.3,0.1-0.5,0.2-0.7,0.3c-0.2,0.1-0.3,0.1-0.4,0.1C3.3,22,3.2,22,3.2,22l0,0c-0.3,0.1-0.7,0.2-1,0.4
	c-0.4,0.1-0.7,0.3-1.1,0.5c-0.3,0.2-0.6,0.4-0.8,0.6C0,23.7,0,24,0,24.2c0.1,0.4,0.3,0.6,0.6,0.7C1,25,1.4,25,1.8,24.9
	c0.8-0.4,1.7-0.8,2.6-1.2c0.9-0.4,1.8-0.8,2.7-1.1c0.3,1.1,0.6,2.1,0.8,3c0.2,0.9,0.5,1.8,0.7,2.7c0.2,0.9,0.4,1.8,0.6,2.8
	c0.2,1,0.4,2.1,0.6,3.3l0.3,1.4c0.5,0,0.9-0.1,1.2-0.2c0.3-0.1,0.5-0.2,0.7-0.4c0.1-0.1,0.2-0.3,0.2-0.5c0-0.2,0-0.4,0-0.7
	c-0.2-0.7-0.3-1.4-0.5-2.2c-0.2-0.8-0.3-1.6-0.5-2.4c-0.2-0.8-0.4-1.6-0.5-2.4c-0.2-0.8-0.4-1.5-0.5-2.2c-0.2-0.7-0.3-1.3-0.5-1.8
	c-0.2-0.5-0.3-0.9-0.4-1.1c0.2-0.1,0.3-0.1,0.4-0.2c0.1,0,0.2-0.1,0.3-0.1c0.1,0,0.2-0.1,0.3-0.1s0.3-0.1,0.4-0.2
	C11.9,20.7,13.2,20.2,14.7,19.6L14.7,19.6z M20.6,21c0.6-0.5,1.4-0.9,2.3-1.1l-0.3-1.5c-1,0.1-1.9,0.4-2.6,0.8
	c-0.7,0.4-1.4,0.9-1.9,1.4c-0.5,0.6-1,1.2-1.3,1.9c-0.4,0.7-0.7,1.4-0.9,2.1c-0.2-0.5-0.3-0.9-0.4-1.3c-0.1-0.4-0.1-0.8-0.2-1.1
	c-0.1-0.3-0.1-0.6-0.2-0.8c-0.1-0.2-0.2-0.4-0.3-0.6c-0.1-0.2-0.3-0.3-0.5-0.3s-0.5-0.1-0.8-0.1c-0.3,0.1-0.4,0.2-0.6,0.4
	c-0.1,0.1-0.2,0.3-0.2,0.5c0,0.2,0,0.3,0,0.5c0,0.2,0.1,0.3,0.1,0.4l0,0.1c0.2,0.8,0.5,1.6,0.7,2.2c0.2,0.7,0.4,1.3,0.5,1.8
	c0.3,0.9,0.5,1.6,0.7,2.3c0.2,0.6,0.4,1.2,0.5,1.8c0.2,0.5,0.3,1.1,0.5,1.6c0.1,0.5,0.3,1.1,0.5,1.8l0.1,0.2
	c0.4,0.3,0.9,0.5,1.3,0.4c0.3,0,0.5-0.2,0.6-0.4c0.2-0.2,0.2-0.4,0.2-0.7c-0.1-0.9-0.2-1.8-0.3-2.8C18,29.4,18,28.5,18,27.6
	c0-0.9,0.1-1.8,0.3-2.6c0.2-0.8,0.5-1.6,0.8-2.3C19.5,22.1,20,21.5,20.6,21L20.6,21z M40,36.6c0.2-0.6,0.3-1.2,0.3-1.9
	c0-0.6-0.1-1.3-0.2-1.9c-0.1-0.4-0.2-0.7-0.3-1.1c-0.1-0.4-0.2-0.7-0.3-1c-0.1-0.4-0.2-0.8-0.3-1.1c-0.1-0.4-0.3-1-0.5-1.7
	c-0.2-0.7-0.4-1.5-0.7-2.3c-0.3-0.9-0.5-1.8-0.8-2.7c-0.3-0.9-0.6-1.8-0.8-2.7c-0.3-0.9-0.5-1.6-0.8-2.3c-0.2-0.7-0.4-1.3-0.6-1.7
	l-0.5,0.1c-0.3,0-0.7,0.1-1,0.2c-0.3,0.1-0.5,0.4-0.7,0.7c-0.2,0.7-0.5,1.5-0.7,2.5c-0.3,1-0.5,2-0.8,3.1c-0.2,0.8-0.4,1.6-0.6,2.4
	c-0.2,0.8-0.4,1.5-0.6,2.1c-0.2,0.6-0.3,1.2-0.5,1.6c-0.2,0.4-0.3,0.7-0.4,0.8c-0.1,0-0.3-0.1-0.4-0.3c-0.1-0.2-0.3-0.5-0.5-0.9
	C28.3,28,28.2,27.5,28,27c-0.2-0.5-0.3-1.1-0.4-1.8c-0.2-0.9-0.3-2-0.3-3.1c0-1.1,0-2.2,0.3-3.3c-0.2-0.5-0.6-0.8-1.1-0.8
	c-0.5,0-1,0-1.5,0.3c-0.1,1.4-0.1,2.8,0,4.3c0.1,1.5,0.2,2.8,0.5,4.1c0.1,0.7,0.3,1.4,0.6,2.1c0.2,0.6,0.5,1.2,0.8,1.7
	c0.3,0.5,0.7,0.9,1.1,1.2c0.4,0.3,0.8,0.5,1.3,0.5c0.4,0,0.8-0.2,1.2-0.5c0.4-0.3,0.7-0.7,1-1.3c0.3-0.5,0.6-1.2,0.9-1.9
	c0.3-0.7,0.6-1.5,0.8-2.3c0.2-0.8,0.5-1.6,0.7-2.5c0.2-0.9,0.4-1.7,0.6-2.5c0.1,0.4,0.3,0.8,0.4,1.3c0.2,0.5,0.3,1.1,0.5,1.7
	c0.2,0.6,0.3,1.2,0.5,1.8c0.2,0.6,0.3,1.2,0.5,1.8c0.2,0.6,0.3,1.1,0.4,1.7c0.1,0.5,0.3,1,0.4,1.4c0,0.2,0.1,0.4,0.2,0.8
	c0.1,0.4,0.2,0.8,0.3,1.2c0.1,0.5,0.2,1,0.2,1.6c0,0.6,0,1.1-0.1,1.6c-0.1,0.5-0.4,0.9-0.7,1.3c-0.3,0.4-0.8,0.6-1.5,0.7
	c-0.7,0.1-1.5,0.1-2.5,0l0,0c-0.2,0-0.3,0-0.5,0.2c-0.2,0.2-0.3,0.3-0.4,0.6c-0.1,0.2-0.2,0.4-0.3,0.6c-0.1,0.2-0.1,0.3,0,0.4
	l-0.2-0.1c0.2,0.2,0.5,0.3,0.9,0.4c0.4,0.1,0.8,0.1,1.3,0.1c0.5,0,1-0.1,1.5-0.1c0.5-0.1,1-0.1,1.4-0.2l0.1,0
	c0.9-0.4,1.6-0.8,2.1-1.3C39.5,37.8,39.8,37.2,40,36.6L40,36.6z M52.2,27.5c0.4-0.2,0.5-0.5,0.4-1c-0.2-0.7-0.4-1.6-0.6-2.6
	s-0.5-2.1-0.9-3.3c-0.4-1.2-0.8-2.3-1.2-3.5c-0.5-1.2-1-2.3-1.6-3.2l-1.7,1.1c0.6,1.5,1.1,3,1.6,4.4c0.5,1.5,0.9,2.9,1.3,4.3
	c0.2,0.6,0.4,1.3,0.6,2.1c0.2,0.7,0.4,1.4,0.6,2.1C51.3,27.7,51.8,27.6,52.2,27.5L52.2,27.5z M47.5,12.8c0.3-0.1,0.6-0.3,0.8-0.6
	c0.2-0.2,0.3-0.4,0.3-0.6c0-0.2-0.1-0.3-0.3-0.4c-0.2-0.1-0.4-0.2-0.7-0.3c-0.3-0.1-0.6-0.1-0.9-0.1c-0.3,0-0.6,0.1-0.9,0.2
	c-0.4,0.4-0.6,0.7-0.5,1.1c0.3,0.4,0.7,0.7,1.1,0.7C46.8,13,47.2,12.9,47.5,12.8L47.5,12.8z M62,11.5c0.1-0.3,0.1-0.6,0-0.9
	c-1,0.4-2.1,0.7-3.2,1.2c-1.2,0.4-2.3,0.8-3.3,1.2l-0.7-3.6c-0.4,0-0.7,0-1,0.1c-0.3,0.1-0.5,0.3-0.7,0.4c-0.2,0.2-0.3,0.3-0.4,0.5
	c-0.1,0.2-0.1,0.3-0.1,0.4l0.6,3.1c-0.2,0.2-0.4,0.3-0.7,0.4c-0.3,0.1-0.6,0.2-0.9,0.3c-0.1,0-0.3,0.1-0.5,0.2
	c-0.3,0.1-0.6,0.2-0.9,0.4c0.3,0.6,0.5,1.1,0.8,1.2s0.5,0.3,0.7,0.2c0.1-0.1,0.3-0.1,0.4-0.2c0.1-0.1,0.3-0.1,0.4-0.2
	c0.2-0.1,0.4-0.1,0.5-0.2c0.2-0.1,0.3-0.1,0.5-0.2l2.1,11c0.1,0,0.2,0,0.5-0.1c0.3-0.1,0.5-0.2,0.8-0.3c0.3-0.1,0.5-0.3,0.7-0.4
	c0.2-0.2,0.3-0.3,0.2-0.5l-2-10.7c0.3-0.2,0.8-0.3,1.3-0.5c0.5-0.2,1.1-0.4,1.6-0.6c0.3-0.1,0.7-0.3,1-0.4c0.3-0.1,0.6-0.2,0.9-0.4
	c0.2-0.1,0.3-0.2,0.5-0.3c0.2-0.1,0.4-0.3,0.5-0.5S61.9,11.8,62,11.5L62,11.5z M83.1,20.8c0.2-0.2,0.3-0.4,0.3-0.5
	c-0.1-0.1-0.3-0.4-0.4-0.7c-0.1-0.4-0.3-0.8-0.4-1.3c-0.1-0.5-0.3-1-0.4-1.6c-0.1-0.6-0.3-1.1-0.4-1.7c-0.2-0.7-0.3-1.3-0.4-1.9
	S81.1,12.2,81,12l0,0c-0.1-0.3-0.3-0.7-0.5-1.2c-0.2-0.5-0.5-1-0.9-1.4c-0.4-0.4-0.8-0.8-1.4-1.1C77.7,8.1,77,8,76.3,8.2
	c-0.5,0.1-0.9,0.3-1.3,0.5c-0.4,0.3-0.7,0.6-1,1c-0.3,0.4-0.6,0.8-0.8,1.3c-0.2,0.5-0.4,1-0.5,1.5l-0.4-2.3c-0.4,0.1-0.8,0.2-1,0.4
	c-0.3,0.2-0.5,0.3-0.7,0.5c-0.2,0.2-0.3,0.4-0.3,0.7c0,0.2-0.1,0.5,0,0.7l2,10.6c0,0.2,0.2,0.3,0.5,0.4c0.3,0.1,0.6,0.1,1,0
	c0.3-0.1,0.6-0.3,0.8-0.6c0.2-0.3,0.2-0.8,0.1-1.4c0-0.5-0.1-1.1-0.1-1.9c0-0.7-0.1-1.5-0.1-2.3c0-0.8,0-1.6,0.1-2.4
	c0.1-0.8,0.2-1.5,0.3-2.2c0.2-0.7,0.4-1.2,0.7-1.7c0.3-0.5,0.7-0.7,1.2-0.8c0.3-0.1,0.6,0,0.8,0.3c0.2,0.3,0.4,0.7,0.6,1.2
	c0.2,0.5,0.4,1.2,0.5,1.9c0.2,0.7,0.3,1.5,0.5,2.2c0.2,1,0.4,2.1,0.7,3.1c0.2,1,0.6,1.9,1,2.7l0,0c0.1,0.2,0.3,0.3,0.6,0.2
	c0.3,0,0.6-0.1,1-0.3C82.6,21.2,82.9,21,83.1,20.8L83.1,20.8z M92.7,13.7c0.1-1.1,0-2.2-0.1-3.2c-0.1-0.7-0.3-1.4-0.6-2
	c-0.3-0.6-0.6-1.1-1-1.5c-0.4-0.4-0.9-0.7-1.4-0.9c-0.5-0.2-1.2-0.2-1.8-0.1c-0.7,0.1-1.3,0.3-1.8,0.8c-0.5,0.4-1,1.1-1.4,2
	c-0.4,0.9-0.6,2-0.7,3.4c-0.1,1.4-0.1,3,0.1,5l0,0c0.1,0.4,0.2,0.9,0.3,1.4c0.1,0.5,0.3,1,0.6,1.4c0.3,0.4,0.7,0.7,1.2,0.9
	c0.5,0.2,1.1,0.3,1.9,0.1c1-0.2,1.8-0.7,2.5-1.4c0.7-0.7,1.2-1.6,1.6-2.5C92.3,15.9,92.6,14.8,92.7,13.7L92.7,13.7z M90.1,10.8
	c0.1,0.8,0.2,1.6,0.2,2.4c0,0.8-0.2,1.7-0.4,2.4c-0.2,0.8-0.5,1.4-1,2c-0.4,0.6-0.9,1-1.6,1.2c-0.3,0-0.6-0.2-0.8-0.7
	c-0.2-0.5-0.4-1.1-0.6-1.8c-0.2-0.8-0.2-1.7-0.3-2.7c0-1,0.1-1.9,0.2-2.8c0.1-0.9,0.4-1.6,0.7-2.2c0.3-0.6,0.7-0.9,1.2-1l0,0
	c0.3,0,0.6,0,0.8,0.2c0.3,0.1,0.5,0.4,0.7,0.6c0.2,0.3,0.4,0.6,0.5,1C89.9,9.9,90,10.4,90.1,10.8L90.1,10.8z M112.2,2.4
	c0.3-0.9,0.8-1.6,1.4-2.2c-0.9-0.4-1.7-0.3-2.4,0.2c-0.6,0.5-1.2,1.3-1.6,2.5c-0.2,0.8-0.4,1.6-0.5,2.5c-0.1,0.9-0.2,1.8-0.2,2.6
	c0,0.9-0.1,1.7,0,2.5c0,0.8,0,1.5,0.1,2.1c-0.4-0.4-0.7-0.8-1-1.3c-0.3-0.5-0.7-1-1-1.6c-0.4-0.6-0.7-1.1-1.1-1.7
	c-0.4-0.6-0.8-1-1.2-1.4c-0.4-0.4-0.8-0.7-1.3-0.9c-0.4-0.2-0.9-0.3-1.4-0.2c-0.8,0.1-1.5,0.4-2,0.9c-0.5,0.5-0.9,1.1-1.2,1.9
	c-0.3,0.7-0.5,1.5-0.6,2.4c-0.1,0.8-0.2,1.6-0.2,2.4c0,0.2-0.1,0.4-0.1,0.7c0,0.2,0,0.4-0.1,0.6l-3.7-9.1C94,5,93.8,4.9,93.6,4.8
	c-0.2-0.1-0.5-0.1-0.7-0.1c-0.5,0.1-0.8,0.4-0.9,1l0,0.1c0,0.1,0.1,0.3,0.3,0.8c0.2,0.4,0.4,0.9,0.6,1.6c0.3,0.6,0.6,1.3,0.9,2.1
	c0.3,0.8,0.7,1.6,1.1,2.3c0.4,0.8,0.8,1.6,1.2,2.3c0.4,0.7,0.8,1.4,1.1,2c0.4,0.6,0.7,1,1,1.3s0.6,0.5,0.8,0.4
	c0.3-0.6,0.6-1.1,0.8-1.7c0.2-0.6,0.4-1.2,0.5-1.8c0.1-0.6,0.2-1.2,0.3-1.8c0.1-0.6,0.1-1.1,0.1-1.7c0-0.5,0.1-1,0.1-1.5
	c0.1-0.5,0.1-1,0.3-1.4c0.1-0.4,0.3-0.7,0.5-1c0.2-0.3,0.4-0.4,0.7-0.5c0.1,0,0.2,0.1,0.3,0.2c0.1,0.2,0.3,0.4,0.5,0.6
	c0.2,0.3,0.4,0.6,0.7,1c0.2,0.4,0.5,0.8,0.8,1.2c0.4,0.6,0.8,1.2,1.2,1.8c0.4,0.6,0.9,1.2,1.4,1.8c0.5,0.6,1,1.1,1.6,1.6
	c0.6,0.5,1.2,0.9,1.8,1.3c0.3-0.3,0.4-0.7,0.6-1.1c0.1-0.4,0.2-0.9,0.3-1.4c0.1-0.5,0.1-1.1,0.1-1.6c0-0.6,0-1.1,0-1.8
	c0-0.9-0.1-1.8-0.1-2.8c0-1,0.1-2,0.2-2.9C111.7,4.2,111.9,3.3,112.2,2.4L112.2,2.4z M102,5.4L102,5.4C101.9,5.4,101.9,5.4,102,5.4
	C101.9,5.4,101.9,5.4,102,5.4L102,5.4z"/>
</svg>
