<?xml version="1.0" encoding="utf-8"?>
<!-- Generator: Adobe Illustrator 19.2.0, SVG Export Plug-In . SVG Version: 6.00 Build 0)  -->
<svg version="1.1" id="Vrstva_1" xmlns="http://www.w3.org/2000/svg" xmlns:xlink="http://www.w3.org/1999/xlink" x="0px" y="0px"
	 viewBox="0 0 128.8 142.9" style="enable-background:new 0 0 128.8 142.9;" xml:space="preserve">
<style type="text/css">
	.st0{fill:#FFFFFF;}
</style>
<path class="st0" d="M79.9,59.8L79.9,59.8c-0.5-0.3-0.6-0.9-0.3-1.4c0.3-0.5,0.9-0.6,1.4-0.3l0,0c0.2,0.1,31.4,19.4,40.3,75.1
	c0.1,0.5-0.3,1.1-0.8,1.1c-0.5,0.1-1.1-0.3-1.1-0.8C110.5,78.5,80,59.9,79.9,59.8L79.9,59.8L79.9,59.8z M106.4,125L106.4,125
	c0.3,0.1,10.3,17.3,15.3,17.9c0.5,0,1-0.2,1.3-0.6c2.8-3.3,5.7-16.4,5.8-16.5c0.1-0.5-0.2-1.1-0.7-1.2c-0.5-0.1-1.1,0.2-1.2,0.7
	c0,0-3.3,13.4-5.3,15.6l0.2,0.1v-0.2l-0.2,0.1l0.2,0.1v-0.2c-1.9,0.6-13.5-17-13.6-17l0,0c-0.3-0.5-0.9-0.6-1.4-0.3
	C106.3,123.9,106.1,124.5,106.4,125L106.4,125L106.4,125z M8.3,64.2c-0.4-0.4-0.6-0.7-0.9-0.9c0.1-0.1,0.2-0.2,0.3-0.3
	c0.1-0.1,0.1-0.2,0.2-0.2c0.1-0.1,0.1-0.2,0.2-0.3c0.1-0.1,0.2-0.2,0.3-0.4c0.9-0.9,1.9-2,3-3.2c1.1-1.2,2.5-2.3,3.9-3.5l-0.9-1.2
	c-1,0.8-2.1,1.5-3,2.3c-1,0.8-1.9,1.6-2.8,2.5C8,60,7.1,60.8,6.3,61.6c-0.8,0.8-1.6,1.7-2.4,2.5c-0.4,0.4-0.7,0.7-0.9,0.9
	c-0.2,0.2-0.4,0.4-0.5,0.5c-0.1,0.1-0.2,0.2-0.3,0.3C2.1,66,2.1,66,2.1,66.1l0,0c-0.2,0.2-0.5,0.5-0.8,0.8c-0.3,0.3-0.5,0.6-0.8,0.9
	c-0.2,0.3-0.4,0.6-0.5,0.9C0,68.9,0,69.2,0.2,69.4c0.2,0.3,0.5,0.4,0.9,0.3c0.4-0.1,0.7-0.2,1-0.5c0.6-0.7,1.2-1.4,1.9-2.1
	c0.7-0.7,1.3-1.5,2-2.2c0.7,0.9,1.4,1.6,2,2.4c0.6,0.7,1.2,1.4,1.7,2.1c0.6,0.7,1.1,1.5,1.7,2.3c0.6,0.8,1.2,1.7,1.9,2.7l0.8,1.1
	c0.4-0.3,0.8-0.5,1-0.7c0.2-0.2,0.4-0.4,0.4-0.6c0.1-0.2,0.1-0.4,0-0.6c-0.1-0.2-0.2-0.4-0.3-0.6c-0.4-0.6-0.9-1.2-1.4-1.8
	c-0.5-0.6-1-1.3-1.5-2c-0.5-0.7-1-1.3-1.5-1.9c-0.5-0.6-1-1.2-1.4-1.7C9.1,65.1,8.7,64.6,8.3,64.2L8.3,64.2z M17.9,64.9
	c-0.4-0.8-0.6-1.7-0.8-2.5c-0.2-0.8-0.3-1.6-0.2-2.4c0.1-0.8,0.3-1.5,0.6-2.2c0.4-0.7,0.9-1.4,1.6-2l-0.9-1.3
	c-0.8,0.5-1.5,1.1-2,1.8c-0.5,0.7-0.9,1.4-1.1,2.1c-0.3,0.7-0.4,1.5-0.4,2.2c0,0.8,0,1.5,0.1,2.3c-0.4-0.4-0.7-0.7-0.9-1.1
	c-0.2-0.3-0.5-0.6-0.6-0.9c-0.2-0.3-0.4-0.5-0.5-0.7c-0.2-0.2-0.3-0.3-0.5-0.4c-0.2-0.1-0.4-0.1-0.6-0.1c-0.2,0-0.5,0.1-0.8,0.3
	c-0.2,0.2-0.3,0.4-0.4,0.6c0,0.2,0,0.4,0,0.5c0,0.2,0.1,0.3,0.2,0.4c0.1,0.1,0.2,0.3,0.2,0.3l0.1,0.1c0.6,0.6,1.1,1.2,1.5,1.7
	c0.5,0.5,0.9,1,1.2,1.4c0.6,0.7,1.1,1.3,1.6,1.8c0.4,0.5,0.8,1,1.2,1.4c0.4,0.4,0.7,0.9,1.1,1.3c0.4,0.4,0.8,0.9,1.2,1.5l0.2,0.1
	c0.5,0.1,1,0.1,1.3-0.2c0.2-0.1,0.3-0.3,0.4-0.6c0.1-0.2,0-0.5-0.1-0.7c-0.5-0.8-1-1.5-1.5-2.4S18.3,65.7,17.9,64.9L17.9,64.9z
	 M41.4,65.8c0.2-0.7,0.3-1.3,0.3-2c-0.1-0.6-0.2-1.2-0.5-1.8c-0.3-0.6-0.6-1.1-1-1.7c-0.2-0.3-0.5-0.6-0.7-0.9
	c-0.2-0.3-0.5-0.6-0.7-0.8c-0.3-0.3-0.5-0.6-0.7-0.9c-0.3-0.3-0.7-0.8-1.1-1.3c-0.5-0.6-1-1.2-1.6-1.8c-0.6-0.7-1.2-1.4-1.9-2.1
	c-0.7-0.7-1.3-1.4-1.9-2.1c-0.6-0.7-1.2-1.3-1.7-1.8c-0.5-0.5-0.9-1-1.2-1.3l-0.4,0.3c-0.3,0.2-0.5,0.4-0.8,0.6
	c-0.2,0.2-0.3,0.5-0.3,0.9c0.1,0.7,0.2,1.6,0.4,2.6c0.2,1,0.4,2.1,0.6,3.2c0.1,0.8,0.3,1.6,0.4,2.4c0.1,0.8,0.3,1.5,0.4,2.1
	c0.1,0.6,0.2,1.2,0.2,1.6c0,0.4,0,0.7,0,0.8c-0.1,0.1-0.3,0-0.5-0.1c-0.2-0.1-0.5-0.4-0.8-0.6c-0.3-0.3-0.6-0.6-1-1.1
	c-0.4-0.4-0.7-0.9-1.1-1.4c-0.6-0.8-1.1-1.7-1.6-2.6c-0.5-1-0.9-2-1.2-3.1c-0.4-0.4-0.9-0.5-1.3-0.3c-0.5,0.2-0.9,0.4-1.2,0.9
	c0.5,1.3,1.1,2.6,1.8,3.9c0.7,1.3,1.4,2.5,2.1,3.5c0.4,0.6,0.9,1.1,1.4,1.6c0.5,0.5,1,0.9,1.5,1.2c0.5,0.3,1,0.5,1.5,0.6
	c0.5,0.1,1,0.1,1.4-0.1c0.4-0.2,0.7-0.5,0.9-0.9c0.2-0.4,0.3-1,0.4-1.6c0.1-0.6,0.1-1.3,0.1-2.1c0-0.8-0.1-1.6-0.2-2.4
	c-0.1-0.8-0.3-1.7-0.4-2.5c-0.2-0.9-0.4-1.7-0.5-2.5c0.3,0.3,0.6,0.6,1,1c0.4,0.4,0.8,0.8,1.2,1.3c0.4,0.5,0.8,0.9,1.2,1.4
	c0.4,0.5,0.8,1,1.2,1.4c0.4,0.5,0.8,0.9,1.1,1.3c0.3,0.4,0.6,0.8,0.9,1.1c0.1,0.1,0.3,0.3,0.5,0.6c0.2,0.3,0.5,0.6,0.8,1
	c0.3,0.4,0.6,0.8,0.8,1.3c0.3,0.5,0.4,1,0.5,1.5c0.1,0.5,0.1,1-0.1,1.5c-0.2,0.5-0.5,0.9-1,1.3c-0.6,0.4-1.3,0.8-2.3,1l0,0
	c-0.2,0-0.3,0.2-0.4,0.4c-0.1,0.2-0.1,0.4-0.2,0.7c0,0.2,0,0.5,0,0.7c0,0.2,0.1,0.3,0.2,0.3l-0.3,0c0.3,0.1,0.6,0.1,1,0
	c0.4-0.1,0.8-0.3,1.2-0.5c0.4-0.2,0.9-0.5,1.3-0.8c0.4-0.3,0.8-0.6,1.2-0.8l0.1-0.1C40.7,67.2,41.2,66.5,41.4,65.8L41.4,65.8z
	 M48.9,50.4c0.3-0.3,0.3-0.7,0-1.1c-0.5-0.6-1-1.3-1.7-2.1c-0.7-0.8-1.4-1.7-2.2-2.6c-0.8-0.9-1.7-1.8-2.6-2.7
	c-0.9-0.9-1.9-1.6-2.8-2.3l-1.1,1.7c1.2,1.1,2.3,2.2,3.3,3.4c1,1.2,2,2.3,3,3.4c0.4,0.5,0.9,1.1,1.4,1.6c0.5,0.6,1,1.1,1.4,1.6
	C48.2,51.1,48.6,50.8,48.9,50.4L48.9,50.4z M38.5,39.1c0.3-0.3,0.4-0.6,0.5-0.9c0.1-0.3,0.1-0.5,0-0.6c-0.1-0.1-0.3-0.2-0.5-0.2
	c-0.2,0-0.5,0-0.8,0.1c-0.3,0.1-0.6,0.2-0.8,0.3c-0.3,0.2-0.5,0.3-0.7,0.6c-0.2,0.5-0.2,0.9,0,1.2c0.5,0.3,0.9,0.3,1.3,0.2
	C37.9,39.5,38.2,39.3,38.5,39.1L38.5,39.1z M53.3,47.1c0.1-0.2,0.1-0.4,0-0.6L47,37.7c0.2-0.3,0.6-0.6,1-1c0.4-0.4,0.8-0.8,1.2-1.3
	c0.3-0.3,0.5-0.5,0.7-0.8c0.2-0.2,0.4-0.5,0.6-0.7c0.1-0.1,0.2-0.3,0.3-0.5c0.1-0.2,0.2-0.4,0.2-0.7c0-0.3,0.1-0.5,0-0.8
	c0-0.3-0.2-0.5-0.3-0.8c-0.8,0.7-1.6,1.5-2.4,2.4c-0.9,0.9-1.7,1.7-2.5,2.5L43.7,33c-0.3,0.1-0.6,0.3-0.8,0.5
	c-0.2,0.2-0.4,0.4-0.5,0.7c-0.1,0.2-0.1,0.4-0.2,0.6c0,0.2,0,0.3,0.1,0.4l1.8,2.5c-0.1,0.2-0.2,0.4-0.5,0.7
	c-0.2,0.2-0.4,0.4-0.7,0.7c-0.1,0.1-0.2,0.2-0.4,0.4c-0.2,0.2-0.4,0.4-0.7,0.7c0.5,0.5,0.9,0.7,1.2,0.8c0.3,0.1,0.6,0,0.7-0.1
	c0.1-0.1,0.2-0.2,0.3-0.3c0.1-0.1,0.2-0.2,0.3-0.3c0.1-0.1,0.3-0.3,0.4-0.4c0.1-0.1,0.3-0.3,0.4-0.4l6.5,9.1c0,0,0.2-0.1,0.4-0.3
	c0.2-0.2,0.4-0.4,0.6-0.6C53,47.5,53.2,47.3,53.3,47.1L53.3,47.1z M74.2,31.4c0.1-0.3,0.2-0.5,0.1-0.6c-0.2-0.1-0.4-0.2-0.7-0.5
	c-0.3-0.3-0.6-0.6-0.9-1c-0.3-0.4-0.7-0.8-1-1.3c-0.4-0.5-0.7-0.9-1.1-1.4c-0.4-0.6-0.8-1.1-1.2-1.5c-0.3-0.4-0.6-0.7-0.8-0.9l0,0
	c-0.2-0.3-0.6-0.6-1-0.9c-0.4-0.4-0.9-0.6-1.4-0.9c-0.5-0.2-1.1-0.4-1.7-0.4c-0.6,0-1.2,0.2-1.8,0.6c-0.4,0.3-0.7,0.6-1,1
	c-0.2,0.4-0.4,0.8-0.5,1.3c-0.1,0.5-0.2,1-0.1,1.5c0,0.5,0.1,1.1,0.1,1.6l-1.4-1.9c-0.3,0.2-0.6,0.5-0.8,0.8
	c-0.2,0.3-0.3,0.5-0.4,0.8c-0.1,0.3-0.1,0.5,0,0.7c0.1,0.2,0.1,0.4,0.3,0.6l6.3,8.7c0.1,0.2,0.3,0.2,0.6,0.2c0.3,0,0.6-0.2,0.9-0.4
	c0.3-0.2,0.4-0.5,0.5-0.9s-0.1-0.8-0.5-1.3c-0.3-0.4-0.6-1-0.9-1.6c-0.3-0.7-0.7-1.3-1-2.1c-0.3-0.7-0.7-1.5-0.9-2.2
	c-0.3-0.8-0.5-1.5-0.6-2.1c-0.1-0.7-0.1-1.3-0.1-1.8c0.1-0.5,0.3-1,0.7-1.3c0.3-0.2,0.5-0.2,0.9-0.1c0.3,0.2,0.7,0.4,1.1,0.9
	c0.4,0.4,0.8,0.9,1.3,1.5c0.4,0.6,0.9,1.2,1.4,1.8c0.6,0.9,1.3,1.7,1.9,2.5c0.6,0.8,1.3,1.5,2,2h0c0.2,0.1,0.4,0.1,0.6-0.1
	c0.3-0.2,0.5-0.4,0.7-0.7C73.9,32,74.1,31.7,74.2,31.4L74.2,31.4z M80.1,27.1c0.3-0.9,0.5-1.9,0.4-3c-0.1-1.1-0.3-2.1-0.7-3.1
	c-0.4-1-0.9-2-1.5-2.8c-0.4-0.6-0.9-1.1-1.4-1.5c-0.5-0.4-1-0.8-1.6-1c-0.6-0.2-1.1-0.3-1.7-0.2c-0.6,0.1-1.2,0.3-1.7,0.7
	c-0.6,0.3-1,0.8-1.3,1.5c-0.3,0.6-0.5,1.4-0.4,2.3c0,0.9,0.3,2.1,0.8,3.3c0.5,1.3,1.2,2.8,2.2,4.4l0,0c0.2,0.3,0.5,0.7,0.9,1.1
	c0.3,0.4,0.7,0.7,1.1,1c0.4,0.3,0.9,0.4,1.4,0.4c0.5,0,1.1-0.2,1.8-0.7C79.2,28.9,79.8,28.1,80.1,27.1L80.1,27.1z M78.2,23.9
	c0.1,0.8,0.1,1.5,0,2.2c-0.1,0.7-0.4,1.3-0.9,1.8c-0.3,0.2-0.6,0.1-1-0.2c-0.4-0.3-0.8-0.8-1.3-1.4c-0.5-0.7-0.9-1.5-1.4-2.3
	c-0.4-0.9-0.8-1.8-1-2.6c-0.2-0.8-0.3-1.6-0.3-2.3c0-0.7,0.2-1.1,0.6-1.4l0,0c0.2-0.2,0.5-0.2,0.8-0.2c0.3,0,0.6,0.1,0.9,0.3
	c0.3,0.2,0.6,0.4,0.9,0.7c0.3,0.3,0.6,0.6,0.8,1c0.5,0.6,0.8,1.3,1.2,2.1C77.8,22.3,78,23.1,78.2,23.9L78.2,23.9z M97.4,16.3
	c0.1-0.4,0.1-0.8,0.1-1.3c-0.1-0.4-0.2-0.9-0.3-1.4c-0.2-0.5-0.4-1-0.6-1.5c-0.2-0.5-0.5-1-0.8-1.6c-0.4-0.8-0.8-1.6-1.2-2.5
	c-0.4-0.9-0.8-1.8-1-2.8c-0.3-0.9-0.5-1.9-0.5-2.8c-0.1-0.9,0-1.7,0.3-2.5c-1,0.1-1.7,0.4-2.1,1.1c-0.4,0.7-0.5,1.7-0.4,2.9
	c0.1,0.8,0.3,1.6,0.6,2.5c0.3,0.9,0.6,1.7,0.9,2.5c0.3,0.8,0.7,1.6,1,2.3c0.3,0.7,0.7,1.3,0.9,1.8c-0.5-0.2-1-0.5-1.5-0.8
	c-0.5-0.3-1.1-0.7-1.6-1c-0.6-0.4-1.1-0.7-1.7-1.1c-0.6-0.3-1.1-0.6-1.7-0.8c-0.5-0.2-1.1-0.3-1.6-0.3c-0.5,0-0.9,0.1-1.3,0.4l0,0
	c-0.7,0.4-1.2,1-1.4,1.7c-0.2,0.7-0.3,1.4-0.3,2.2c0.1,0.8,0.2,1.6,0.5,2.4c0.3,0.8,0.5,1.6,0.8,2.3c0.1,0.2,0.1,0.4,0.2,0.6
	c0.1,0.2,0.1,0.4,0.2,0.6l-7.1-6.7c-0.2,0-0.4-0.1-0.7,0c-0.2,0-0.5,0.1-0.6,0.2c-0.4,0.3-0.5,0.7-0.4,1.2l0.1,0.1
	c0,0.1,0.2,0.3,0.6,0.6c0.3,0.3,0.7,0.7,1.2,1.2c0.5,0.5,1.1,1,1.7,1.5c0.6,0.6,1.3,1.1,2,1.7c0.7,0.6,1.3,1.1,2,1.6
	c0.7,0.5,1.3,0.9,1.8,1.3c0.6,0.4,1.1,0.6,1.5,0.8c0.4,0.2,0.7,0.2,0.9,0c0.1-0.6,0.1-1.3,0-1.9c-0.1-0.6-0.2-1.2-0.3-1.8
	c-0.1-0.6-0.3-1.1-0.5-1.7c-0.2-0.6-0.4-1.1-0.6-1.6c-0.2-0.5-0.4-1-0.5-1.5c-0.2-0.5-0.3-0.9-0.3-1.4c-0.1-0.4-0.1-0.8,0-1.1
	c0.1-0.3,0.2-0.6,0.5-0.7c0.1,0,0.2,0,0.4,0.1c0.2,0.1,0.4,0.2,0.7,0.4c0.3,0.2,0.6,0.4,1,0.6c0.4,0.2,0.8,0.5,1.2,0.7
	c0.6,0.4,1.2,0.7,1.9,1.1c0.6,0.4,1.3,0.7,2,1.1c0.7,0.3,1.4,0.6,2.1,0.8C95.9,16.1,96.6,16.3,97.4,16.3L97.4,16.3z"/>
</svg>
